<svg xmlns="http://www.w3.org/2000/svg" xmlns:xlink="http://www.w3.org/1999/xlink" width="40" height="40" viewBox="0 0 40 40" fill="none">
<rect x="0" y="0" width="40" height="40"   fill="#FFFFFF" opacity="0.01">
</rect>
<path    stroke="rgba(51, 51, 51, 1)" stroke-width="2" stroke-linejoin="round" stroke-linecap="round"  d="M15.8633 36.6667C15.0467 34.0037 13.8148 32.0185 12.1676 30.711C9.69666 28.7497 5.77069 29.9686 4.32048 27.9457C2.87027 25.9227 5.33651 22.2026 6.20195 20.0075C7.06738 17.8125 2.88482 17.0363 3.37313 16.4132C3.69868 15.9977 5.81225 14.7989 9.71391 12.8167C10.8225 6.49453 14.9173 3.33344 21.9985 3.33344C32.6201 3.33344 36.6667 12.3384 36.6667 18.0658C36.6667 23.7933 31.7667 29.9636 24.7867 31.294C24.1626 32.203 25.0628 33.9939 27.4873 36.6667">
</path>
<path d="M16.7357 16.5321C17.6042 17.3861 19.0842 17.9445 21.176 18.2074C20.7014 20.9313 21.2801 22.2092 22.9118 22.0411C24.5437 21.8729 25.5241 21.1948 25.8532 20.0069C28.4035 20.7236 29.7857 20.1238 29.9997 18.2074C30.321 15.3327 28.7708 13.0396 28.1353 13.0396C27.4997 13.0396 25.8532 12.9622 25.8532 12.0833C25.8532 11.2043 23.9299 10.7077 22.1941 10.7077C20.4582 10.7077 21.5029 9.53764 19.1193 9.99998C17.5302 10.3081 16.5737 11.0026 16.2497 12.0833C15.7053 14.1951 15.8673 15.6781 16.7357 16.5321Z" stroke="rgba(51, 51, 51, 1)" stroke-width="2" stroke-linejoin="round"  >
</path>
<path    stroke="rgba(51, 51, 51, 1)" stroke-width="2"  stroke-linecap="round"  d="M25.4168 21.2501C24.5694 21.7759 23.4065 22.6503 22.9168 23.3334C21.6928 25.0413 20.6998 26.0812 20.4826 27.1735">
</path>
</svg>
