<svg xmlns="http://www.w3.org/2000/svg" xmlns:xlink="http://www.w3.org/1999/xlink" width="16" height="16" viewBox="0 0 16 16" fill="none">
<path d="M7.99931 0.333333C3.76598 0.333333 0.333313 3.76533 0.333313 8.00001C0.333313 11.388 2.52931 14.2613 5.57666 15.276C5.95931 15.3447 6.08066 15.1187 6.08066 14.9153C6.08066 14.7327 6.08466 14.224 6.08066 13.584C3.94866 14.0467 3.50666 12.574 3.50666 12.574C3.15798 11.688 2.65666 11.4527 2.65666 11.4527C1.95998 10.9767 2.70798 10.9867 2.70798 10.9867C3.47666 11.04 3.88266 11.776 3.88266 11.776C4.56666 12.948 5.67666 12.6093 6.11331 12.4133C6.18398 11.9187 6.38131 11.5793 6.60066 11.3893C4.89798 11.1947 3.10866 10.538 3.10866 7.59868C3.10866 6.76201 3.40731 6.07801 3.89798 5.54133C3.81931 5.34868 3.55531 4.56801 3.97266 3.51268C3.97266 3.51268 4.61731 3.30668 6.08066 4.29933C6.15877 4.27802 6.2372 4.25802 6.31598 4.23932C6.39475 4.2206 6.47381 4.20321 6.55317 4.18711C6.63252 4.17102 6.71211 4.15624 6.79195 4.14279C6.8718 4.12932 6.95183 4.11719 7.03208 4.10638C7.11231 4.09557 7.19272 4.0861 7.27328 4.07794C7.35383 4.06979 7.4345 4.06297 7.51528 4.05751C7.59606 4.05202 7.67691 4.04788 7.75783 4.04507C7.83873 4.04226 7.91969 4.0408 8.00066 4.04068C8.65131 4.04401 9.30731 4.12868 9.92066 4.29933C11.384 3.30733 12.0267 3.51268 12.0267 3.51268C12.4447 4.56801 12.1813 5.34868 12.1027 5.54133C12.5933 6.07801 12.8913 6.76201 12.8913 7.59868C12.8913 10.5453 11.0987 11.1927 9.39066 11.3813C9.66531 11.6193 9.91531 12.0793 9.91531 12.7947L9.91531 14.9173C9.91531 15.1227 10.0393 15.3487 10.4287 15.2747C13.4727 14.2593 15.6667 11.3867 15.6667 8.00001C15.6667 3.76533 12.2347 0.333333 7.99931 0.333333Z"   fill="#383838" >
</path>
</svg>
