<svg xmlns="http://www.w3.org/2000/svg" xmlns:xlink="http://www.w3.org/1999/xlink" width="40" height="40" viewBox="0 0 40 40" fill="none">
<path    stroke="rgba(51, 51, 51, 1)" stroke-width="2" stroke-linejoin="round" stroke-linecap="round"  d="M35 15L35 33.3333C35 34.2538 34.2538 35 33.3333 35L6.66667 35C5.74619 35 5 34.2538 5 33.3333L5 15">
</path>
<path d="M5 15L35 15L35 6.66667C35 5.74619 34.2538 5 33.3333 5L6.66667 5C5.74619 5 5 5.74619 5 6.66667L5 15Z" stroke="rgba(51, 51, 51, 1)" stroke-width="2" stroke-linejoin="round"  >
</path>
<path d="M11.6667 10C11.6667 9.0795 10.9205 8.33334 10 8.33334C9.07949 8.33334 8.33333 9.0795 8.33333 10C8.33333 10.9205 9.07949 11.6667 10 11.6667C10.9205 11.6667 11.6667 10.9205 11.6667 10Z"   fill="#333333" >
</path>
<path d="M16.6667 10C16.6667 9.0795 15.9205 8.33334 15 8.33334C14.0795 8.33334 13.3333 9.0795 13.3333 10C13.3333 10.9205 14.0795 11.6667 15 11.6667C15.9205 11.6667 16.6667 10.9205 16.6667 10Z"   fill="#333333" >
</path>
<path d="M21.6667 10C21.6667 9.0795 20.9205 8.33334 20 8.33334C19.0795 8.33334 18.3333 9.0795 18.3333 10C18.3333 10.9205 19.0795 11.6667 20 11.6667C20.9205 11.6667 21.6667 10.9205 21.6667 10Z"   fill="#333333" >
</path>
</svg>
