<svg xmlns="http://www.w3.org/2000/svg" xmlns:xlink="http://www.w3.org/1999/xlink" width="52.836326599121094" height="52.328125" viewBox="0 0 52.836326599121094 52.328125" fill="none">
<path d="M9.28035 33.4523C9.51951 33.161 9.77082 32.8567 10.016 32.559C9.5546 33.1168 9.2962 33.4289 9.2962 33.4289C9.29092 33.4346 9.28563 33.4452 9.28035 33.4523ZM9.27774 33.4554C9.27861 33.4545 9.27948 33.4534 9.28035 33.4523C9.27948 33.4533 9.27861 33.4544 9.27774 33.4554Z" fill-rule="evenodd"  fill="#1590E9" >
</path>
<path d="M51.8027 9.46288C52.4426 9.0578 52.3626 8.03514 51.6735 7.74296L50.9168 7.42421C49.8094 6.95272 48.8127 6.21561 48.0437 5.2328C47.0777 4.00429 45.2936 2.23788 42.4512 1.1953C39.2089 -1.09076e-05 33.6595 0.239052 30.5648 0.498036C29.5866 0.577724 29.0268 1.71991 29.4943 2.65624C32.1152 7.87577 30.5218 10.2465 29.1437 11.9996C27.0334 14.6824 23.1513 19.4504 19.2568 24.1918C20.6042 22.5648 21.8285 21.084 22.8313 19.8687C25.0708 17.1594 28.4484 15.7848 31.7584 16.4355C42.3097 18.5141 43.5094 33.2629 31.1924 42.0418C32.7981 41.9488 34.4285 41.8226 36.065 41.6433C51.6059 39.9168 52.8363 26.2305 49.4771 19.4703C48.2836 17.073 48.1113 15.4527 48.2405 13.8988C48.3636 12.4711 49.0896 11.1894 50.2277 10.4656L51.8027 9.46288Z"   fill="#99C236" >
</path>
<path d="M19.263 24.1852C15.9038 28.2492 11.7694 33.2629 8.31798 37.4531C10.0591 35.3547 14.6672 29.7832 19.263 24.1852Z"   fill="#1590E9" >
</path>
<path d="M7.57969 38.3496C4.39893 42.2211 1.93799 45.2227 1.48272 45.827C5.72205e-06 47.7859 16.7221 52.3281 31.1739 42.0551C31.1801 42.0484 31.1924 42.0418 31.1985 42.0352C21.5701 42.5797 12.8338 41.6434 8.53331 41.0457C7.3336 40.8797 6.79835 39.3457 7.57969 38.3496Z"   fill="#CAC134" >
</path>
<path d="M22.8375 19.8621C21.8347 21.0707 20.6103 22.5516 19.263 24.1852C14.6672 29.7832 10.0591 35.3547 8.31797 37.4531C8.06572 37.7586 7.81963 38.0574 7.57969 38.3496C6.79834 39.3391 7.33359 40.8731 8.5333 41.0457C12.8338 41.6434 21.5701 42.5797 31.1924 42.0418C43.5094 33.2563 42.3158 18.5074 31.7645 16.4289C28.4546 15.7781 25.077 17.1527 22.8375 19.8621Z"   fill="#029F40" >
</path>
</svg>
